# xmcd
#
# Track frame offsets: 
#        150
#        19600
#        36297
#        53896
#        70091
#        86951
#        104770
#        121850
#        139546
#        155828
#        174596
#        191660
#        209846
#        228784
#        245591
#        264774
#        275594
#        291737
#        309089
#        321087
#
# Disc length: 4466 seconds
#
# Revision: 1
# Processed by: cddbd v1.5.2PL0 Copyright (c) Steve Scherf et al.
# Submitted via: ExactAudioCopy v1.0b3
#
DISCID=2c117014
DTITLE=Loretta Goggi - Loretta Goggi Collection [CD2)
DYEAR=2000
DGENRE=Pop
TTITLE0=Un Amore Grande
TTITLE1=Ancora Innamorati
TTITLE2=Pieno D'Amore
TTITLE3=L'Aria Del Sabato Sera
TTITLE4=Una Notte Così
TTITLE5=C'è Poesia
TTITLE6=Ma Prima O Poi
TTITLE7=E Pensare Che Ti Amo
TTITLE8=Solo Un'Amica
TTITLE9=E Mi Piaci Tu
TTITLE10=Ce Stanno Altre Cose
TTITLE11=Ma Chi Sei
TTITLE12=Un Bacio
TTITLE13=Storie All'Italiana
TTITLE14=Ti Voglio Non Ti Voglio
TTITLE15=Loretta Con La "O"
TTITLE16=Domani
TTITLE17=Donna Io Donna Tu
TTITLE18=Notte Matta
TTITLE19=Hello Goggi
EXTD=
EXTT0=
EXTT1=
EXTT2=
EXTT3=
EXTT4=
EXTT5=
EXTT6=
EXTT7=
EXTT8=
EXTT9=
EXTT10=
EXTT11=
EXTT12=
EXTT13=
EXTT14=
EXTT15=
EXTT16=
EXTT17=
EXTT18=
EXTT19=
PLAYORDER=
